<mxfile host="app.diagrams.net" modified="2023-06-08T01:33:53.598Z" agent="Mozilla/5.0 (Windows NT 10.0; Win64; x64) AppleWebKit/537.36 (KHTML, like Gecko) Chrome/114.0.0.0 Safari/537.36" etag="aMPCOpc5Zd60fYD1ITph" version="21.3.7" type="device">
  <diagram name="페이지-1" id="gwlbGgFNYmpW7Y2FBSv0">
    <mxGraphModel dx="1077" dy="961" grid="1" gridSize="10" guides="1" tooltips="1" connect="1" arrows="1" fold="1" page="1" pageScale="1" pageWidth="4681" pageHeight="3300" math="0" shadow="0">
      <root>
        <mxCell id="0" />
        <mxCell id="1" parent="0" />
        <mxCell id="cvXG3AS-k-yAaA7iZofh-1" value="사용자" style="shape=umlActor;verticalLabelPosition=bottom;verticalAlign=top;html=1;outlineConnect=0;" vertex="1" parent="1">
          <mxGeometry x="760" y="800" width="80" height="120" as="geometry" />
        </mxCell>
        <mxCell id="cvXG3AS-k-yAaA7iZofh-21" style="edgeStyle=orthogonalEdgeStyle;rounded=0;orthogonalLoop=1;jettySize=auto;html=1;entryX=0;entryY=0.5;entryDx=0;entryDy=0;" edge="1" parent="1" source="cvXG3AS-k-yAaA7iZofh-2" target="cvXG3AS-k-yAaA7iZofh-11">
          <mxGeometry relative="1" as="geometry" />
        </mxCell>
        <mxCell id="cvXG3AS-k-yAaA7iZofh-2" value="시작화면" style="ellipse;whiteSpace=wrap;html=1;" vertex="1" parent="1">
          <mxGeometry x="900" y="720" width="170" height="80" as="geometry" />
        </mxCell>
        <mxCell id="cvXG3AS-k-yAaA7iZofh-5" value="최신영화" style="swimlane;fontStyle=0;childLayout=stackLayout;horizontal=1;startSize=30;horizontalStack=0;resizeParent=1;resizeParentMax=0;resizeLast=0;collapsible=1;marginBottom=0;whiteSpace=wrap;html=1;" vertex="1" parent="1">
          <mxGeometry x="905" y="810" width="160" height="177" as="geometry" />
        </mxCell>
        <mxCell id="cvXG3AS-k-yAaA7iZofh-6" value="영화명" style="text;strokeColor=none;fillColor=none;align=left;verticalAlign=middle;spacingLeft=4;spacingRight=4;overflow=hidden;points=[[0,0.5],[1,0.5]];portConstraint=eastwest;rotatable=0;whiteSpace=wrap;html=1;" vertex="1" parent="cvXG3AS-k-yAaA7iZofh-5">
          <mxGeometry y="30" width="160" height="30" as="geometry" />
        </mxCell>
        <mxCell id="cvXG3AS-k-yAaA7iZofh-8" value="감독" style="text;strokeColor=none;fillColor=none;align=left;verticalAlign=middle;spacingLeft=4;spacingRight=4;overflow=hidden;points=[[0,0.5],[1,0.5]];portConstraint=eastwest;rotatable=0;whiteSpace=wrap;html=1;" vertex="1" parent="cvXG3AS-k-yAaA7iZofh-5">
          <mxGeometry y="60" width="160" height="30" as="geometry" />
        </mxCell>
        <mxCell id="cvXG3AS-k-yAaA7iZofh-7" value="출연진" style="text;strokeColor=none;fillColor=none;align=left;verticalAlign=middle;spacingLeft=4;spacingRight=4;overflow=hidden;points=[[0,0.5],[1,0.5]];portConstraint=eastwest;rotatable=0;whiteSpace=wrap;html=1;" vertex="1" parent="cvXG3AS-k-yAaA7iZofh-5">
          <mxGeometry y="90" width="160" height="29" as="geometry" />
        </mxCell>
        <mxCell id="cvXG3AS-k-yAaA7iZofh-9" value="개봉일자" style="text;strokeColor=none;fillColor=none;align=left;verticalAlign=middle;spacingLeft=4;spacingRight=4;overflow=hidden;points=[[0,0.5],[1,0.5]];portConstraint=eastwest;rotatable=0;whiteSpace=wrap;html=1;" vertex="1" parent="cvXG3AS-k-yAaA7iZofh-5">
          <mxGeometry y="119" width="160" height="29" as="geometry" />
        </mxCell>
        <mxCell id="cvXG3AS-k-yAaA7iZofh-10" value="영화설명" style="text;strokeColor=none;fillColor=none;align=left;verticalAlign=middle;spacingLeft=4;spacingRight=4;overflow=hidden;points=[[0,0.5],[1,0.5]];portConstraint=eastwest;rotatable=0;whiteSpace=wrap;html=1;" vertex="1" parent="cvXG3AS-k-yAaA7iZofh-5">
          <mxGeometry y="148" width="160" height="29" as="geometry" />
        </mxCell>
        <mxCell id="cvXG3AS-k-yAaA7iZofh-24" style="edgeStyle=orthogonalEdgeStyle;rounded=0;orthogonalLoop=1;jettySize=auto;html=1;entryX=0;entryY=0.5;entryDx=0;entryDy=0;" edge="1" parent="1" source="cvXG3AS-k-yAaA7iZofh-11" target="cvXG3AS-k-yAaA7iZofh-23">
          <mxGeometry relative="1" as="geometry" />
        </mxCell>
        <mxCell id="cvXG3AS-k-yAaA7iZofh-11" value="영화검색" style="ellipse;whiteSpace=wrap;html=1;" vertex="1" parent="1">
          <mxGeometry x="1120" y="720" width="170" height="80" as="geometry" />
        </mxCell>
        <mxCell id="cvXG3AS-k-yAaA7iZofh-12" value="영화검색" style="swimlane;fontStyle=0;childLayout=stackLayout;horizontal=1;startSize=30;horizontalStack=0;resizeParent=1;resizeParentMax=0;resizeLast=0;collapsible=1;marginBottom=0;whiteSpace=wrap;html=1;" vertex="1" parent="1">
          <mxGeometry x="1125" y="810" width="160" height="177" as="geometry" />
        </mxCell>
        <mxCell id="cvXG3AS-k-yAaA7iZofh-13" value="제목으로 검색하기" style="text;strokeColor=none;fillColor=none;align=left;verticalAlign=middle;spacingLeft=4;spacingRight=4;overflow=hidden;points=[[0,0.5],[1,0.5]];portConstraint=eastwest;rotatable=0;whiteSpace=wrap;html=1;" vertex="1" parent="cvXG3AS-k-yAaA7iZofh-12">
          <mxGeometry y="30" width="160" height="30" as="geometry" />
        </mxCell>
        <mxCell id="cvXG3AS-k-yAaA7iZofh-14" value="장르로 검색하기" style="text;strokeColor=none;fillColor=none;align=left;verticalAlign=middle;spacingLeft=4;spacingRight=4;overflow=hidden;points=[[0,0.5],[1,0.5]];portConstraint=eastwest;rotatable=0;whiteSpace=wrap;html=1;" vertex="1" parent="cvXG3AS-k-yAaA7iZofh-12">
          <mxGeometry y="60" width="160" height="30" as="geometry" />
        </mxCell>
        <mxCell id="cvXG3AS-k-yAaA7iZofh-15" value="감독으로 검색하기" style="text;strokeColor=none;fillColor=none;align=left;verticalAlign=middle;spacingLeft=4;spacingRight=4;overflow=hidden;points=[[0,0.5],[1,0.5]];portConstraint=eastwest;rotatable=0;whiteSpace=wrap;html=1;" vertex="1" parent="cvXG3AS-k-yAaA7iZofh-12">
          <mxGeometry y="90" width="160" height="29" as="geometry" />
        </mxCell>
        <mxCell id="cvXG3AS-k-yAaA7iZofh-16" value="주연으로 검색하기" style="text;strokeColor=none;fillColor=none;align=left;verticalAlign=middle;spacingLeft=4;spacingRight=4;overflow=hidden;points=[[0,0.5],[1,0.5]];portConstraint=eastwest;rotatable=0;whiteSpace=wrap;html=1;" vertex="1" parent="cvXG3AS-k-yAaA7iZofh-12">
          <mxGeometry y="119" width="160" height="29" as="geometry" />
        </mxCell>
        <mxCell id="cvXG3AS-k-yAaA7iZofh-17" value="내용(키워드)로 검색하기" style="text;strokeColor=none;fillColor=none;align=left;verticalAlign=middle;spacingLeft=4;spacingRight=4;overflow=hidden;points=[[0,0.5],[1,0.5]];portConstraint=eastwest;rotatable=0;whiteSpace=wrap;html=1;" vertex="1" parent="cvXG3AS-k-yAaA7iZofh-12">
          <mxGeometry y="148" width="160" height="29" as="geometry" />
        </mxCell>
        <mxCell id="cvXG3AS-k-yAaA7iZofh-29" style="edgeStyle=orthogonalEdgeStyle;rounded=0;orthogonalLoop=1;jettySize=auto;html=1;entryX=0;entryY=0.5;entryDx=0;entryDy=0;" edge="1" parent="1" source="cvXG3AS-k-yAaA7iZofh-23" target="cvXG3AS-k-yAaA7iZofh-25">
          <mxGeometry relative="1" as="geometry" />
        </mxCell>
        <mxCell id="cvXG3AS-k-yAaA7iZofh-30" style="edgeStyle=orthogonalEdgeStyle;rounded=0;orthogonalLoop=1;jettySize=auto;html=1;entryX=0;entryY=0.5;entryDx=0;entryDy=0;" edge="1" parent="1" source="cvXG3AS-k-yAaA7iZofh-23" target="cvXG3AS-k-yAaA7iZofh-26">
          <mxGeometry relative="1" as="geometry" />
        </mxCell>
        <mxCell id="cvXG3AS-k-yAaA7iZofh-31" style="edgeStyle=orthogonalEdgeStyle;rounded=0;orthogonalLoop=1;jettySize=auto;html=1;entryX=0;entryY=0.5;entryDx=0;entryDy=0;" edge="1" parent="1" source="cvXG3AS-k-yAaA7iZofh-23" target="cvXG3AS-k-yAaA7iZofh-27">
          <mxGeometry relative="1" as="geometry" />
        </mxCell>
        <mxCell id="cvXG3AS-k-yAaA7iZofh-32" style="edgeStyle=orthogonalEdgeStyle;rounded=0;orthogonalLoop=1;jettySize=auto;html=1;entryX=0;entryY=0.5;entryDx=0;entryDy=0;" edge="1" parent="1" source="cvXG3AS-k-yAaA7iZofh-23" target="cvXG3AS-k-yAaA7iZofh-28">
          <mxGeometry relative="1" as="geometry" />
        </mxCell>
        <mxCell id="cvXG3AS-k-yAaA7iZofh-23" value="자세히 보기" style="ellipse;whiteSpace=wrap;html=1;" vertex="1" parent="1">
          <mxGeometry x="1390" y="720" width="170" height="80" as="geometry" />
        </mxCell>
        <mxCell id="cvXG3AS-k-yAaA7iZofh-45" style="edgeStyle=orthogonalEdgeStyle;rounded=0;orthogonalLoop=1;jettySize=auto;html=1;entryX=0;entryY=0.5;entryDx=0;entryDy=0;entryPerimeter=0;" edge="1" parent="1" source="cvXG3AS-k-yAaA7iZofh-25" target="cvXG3AS-k-yAaA7iZofh-43">
          <mxGeometry relative="1" as="geometry" />
        </mxCell>
        <mxCell id="cvXG3AS-k-yAaA7iZofh-25" value="영화평남기기" style="ellipse;whiteSpace=wrap;html=1;" vertex="1" parent="1">
          <mxGeometry x="1670" y="580" width="170" height="80" as="geometry" />
        </mxCell>
        <mxCell id="cvXG3AS-k-yAaA7iZofh-41" style="edgeStyle=orthogonalEdgeStyle;rounded=0;orthogonalLoop=1;jettySize=auto;html=1;entryX=0;entryY=0.5;entryDx=0;entryDy=0;" edge="1" parent="1" source="cvXG3AS-k-yAaA7iZofh-26" target="cvXG3AS-k-yAaA7iZofh-33">
          <mxGeometry relative="1" as="geometry" />
        </mxCell>
        <mxCell id="cvXG3AS-k-yAaA7iZofh-26" value="영화예매" style="ellipse;whiteSpace=wrap;html=1;" vertex="1" parent="1">
          <mxGeometry x="1670" y="670" width="170" height="80" as="geometry" />
        </mxCell>
        <mxCell id="cvXG3AS-k-yAaA7iZofh-42" style="edgeStyle=orthogonalEdgeStyle;rounded=0;orthogonalLoop=1;jettySize=auto;html=1;entryX=0;entryY=0.5;entryDx=0;entryDy=0;" edge="1" parent="1" source="cvXG3AS-k-yAaA7iZofh-27" target="cvXG3AS-k-yAaA7iZofh-34">
          <mxGeometry relative="1" as="geometry" />
        </mxCell>
        <mxCell id="cvXG3AS-k-yAaA7iZofh-27" value="OTT 링크 바로가기" style="ellipse;whiteSpace=wrap;html=1;" vertex="1" parent="1">
          <mxGeometry x="1670" y="760" width="170" height="80" as="geometry" />
        </mxCell>
        <mxCell id="cvXG3AS-k-yAaA7iZofh-28" value="공유하기" style="ellipse;whiteSpace=wrap;html=1;" vertex="1" parent="1">
          <mxGeometry x="1670" y="850" width="170" height="80" as="geometry" />
        </mxCell>
        <mxCell id="cvXG3AS-k-yAaA7iZofh-33" value="제휴영화관 링크" style="ellipse;whiteSpace=wrap;html=1;" vertex="1" parent="1">
          <mxGeometry x="1930" y="670" width="170" height="80" as="geometry" />
        </mxCell>
        <mxCell id="cvXG3AS-k-yAaA7iZofh-34" value="OTT 연결" style="ellipse;whiteSpace=wrap;html=1;" vertex="1" parent="1">
          <mxGeometry x="1930" y="760" width="170" height="80" as="geometry" />
        </mxCell>
        <mxCell id="cvXG3AS-k-yAaA7iZofh-35" value="공유하기" style="swimlane;fontStyle=0;childLayout=stackLayout;horizontal=1;startSize=30;horizontalStack=0;resizeParent=1;resizeParentMax=0;resizeLast=0;collapsible=1;marginBottom=0;whiteSpace=wrap;html=1;" vertex="1" parent="1">
          <mxGeometry x="1860" y="860" width="160" height="119" as="geometry" />
        </mxCell>
        <mxCell id="cvXG3AS-k-yAaA7iZofh-36" value="SNS 링크보내기" style="text;strokeColor=none;fillColor=none;align=left;verticalAlign=middle;spacingLeft=4;spacingRight=4;overflow=hidden;points=[[0,0.5],[1,0.5]];portConstraint=eastwest;rotatable=0;whiteSpace=wrap;html=1;" vertex="1" parent="cvXG3AS-k-yAaA7iZofh-35">
          <mxGeometry y="30" width="160" height="30" as="geometry" />
        </mxCell>
        <mxCell id="cvXG3AS-k-yAaA7iZofh-37" value="카카오 링크보내기" style="text;strokeColor=none;fillColor=none;align=left;verticalAlign=middle;spacingLeft=4;spacingRight=4;overflow=hidden;points=[[0,0.5],[1,0.5]];portConstraint=eastwest;rotatable=0;whiteSpace=wrap;html=1;" vertex="1" parent="cvXG3AS-k-yAaA7iZofh-35">
          <mxGeometry y="60" width="160" height="30" as="geometry" />
        </mxCell>
        <mxCell id="cvXG3AS-k-yAaA7iZofh-38" value="FaceBook에 공유하기" style="text;strokeColor=none;fillColor=none;align=left;verticalAlign=middle;spacingLeft=4;spacingRight=4;overflow=hidden;points=[[0,0.5],[1,0.5]];portConstraint=eastwest;rotatable=0;whiteSpace=wrap;html=1;" vertex="1" parent="cvXG3AS-k-yAaA7iZofh-35">
          <mxGeometry y="90" width="160" height="29" as="geometry" />
        </mxCell>
        <mxCell id="cvXG3AS-k-yAaA7iZofh-43" value="" style="shape=cylinder3;whiteSpace=wrap;html=1;boundedLbl=1;backgroundOutline=1;size=15;" vertex="1" parent="1">
          <mxGeometry x="2120" y="550" width="130" height="140" as="geometry" />
        </mxCell>
      </root>
    </mxGraphModel>
  </diagram>
</mxfile>
